# Blender 4.1.1
# www.blender.org
o Cube
v -0.010000 -1.500000 0.375000
v -0.010000 0.200000 0.375000
v 0.010000 -1.500000 0.375000
v 0.010000 0.200000 0.375000
v -0.010000 -1.500000 -0.375000
v -0.010000 0.200000 -0.375000
v 0.010000 -1.500000 -0.375000
v 0.010000 0.200000 -0.375000
vn -0.0000 -1.0000 -0.0000
vn 1.0000 -0.0000 -0.0000
vn -0.0000 -0.0000 -1.0000
vn -0.0000 1.0000 -0.0000
vn -0.0000 -0.0000 1.0000
vn -1.0000 -0.0000 -0.0000
vt 0.917647 0.441176
vt 0.905883 -0.000000
vt 0.917647 -0.000000
vt 0.000000 0.000000
vt 0.441176 1.000000
vt 0.000000 1.000000
vt 0.882353 0.000000
vt 0.894118 1.000000
vt 0.882353 1.000000
vt 0.917647 0.882353
vt 0.905883 0.441176
vt 0.917647 0.441176
vt 0.894118 0.000000
vt 0.905882 1.000000
vt 0.894118 1.000000
vt 0.441177 0.000000
vt 0.882353 1.000000
vt 0.441177 1.000000
vt 0.905883 0.441176
vt 0.441177 0.000000
vt 0.894118 0.000000
vt 0.905883 0.882353
vt 0.905883 0.000000
vt 0.882353 0.000000
s 0
f 5/1/1 3/2/1 1/3/1
f 3/4/2 8/5/2 4/6/2
f 7/7/3 6/8/3 8/9/3
f 2/10/4 8/11/4 6/12/4
f 1/13/5 4/14/5 2/15/5
f 5/16/6 2/17/6 6/18/6
f 5/1/1 7/19/1 3/2/1
f 3/4/2 7/20/2 8/5/2
f 7/7/3 5/21/3 6/8/3
f 2/10/4 4/22/4 8/11/4
f 1/13/5 3/23/5 4/14/5
f 5/16/6 1/24/6 2/17/6
