# Blender 4.1.1
# www.blender.org
o Cube
v 0.125000 -0.093750 -0.125000
v 0.125000 0.093750 -0.125000
v 0.125000 -0.093750 0.125000
v 0.125000 0.093750 0.125000
v -0.125000 -0.093750 -0.125000
v -0.125000 0.093750 -0.125000
v -0.125000 -0.093750 0.125000
v -0.125000 0.093750 0.125000
v 0.125000 0.093750 -0.062500
v 0.125000 0.093750 0.062500
v 0.000000 0.093750 0.062500
v -0.000000 0.093750 -0.062500
v 0.125000 0.187500 -0.062500
v 0.125000 0.156250 -0.062500
v 0.125000 0.156250 0.062500
v 0.125000 0.218750 -0.062500
v 0.125000 0.187500 0.062500
v 0.187500 0.156250 -0.062500
v 0.125000 0.218750 0.062500
v 0.000000 0.218750 0.062500
v -0.000000 0.218750 -0.062500
v 0.187500 0.156250 0.062500
v 0.187500 0.187500 0.062500
v 0.187500 0.187500 -0.062500
vn 1.0000 -0.0000 -0.0000
vn -0.0000 1.0000 -0.0000
vn -0.0000 -0.0000 1.0000
vn -1.0000 -0.0000 -0.0000
vn -0.0000 -1.0000 -0.0000
vn -0.0000 -0.0000 -1.0000
vt 0.875000 1.000000
vt 0.937500 0.843750
vt 0.937500 1.000000
vt 0.500000 0.093750
vt 0.656250 -0.000000
vt 0.656250 0.343750
vt 0.343750 0.687500
vt 0.343750 0.343750
vt 0.250000 0.125000
vt 0.343750 0.437500
vt 0.093750 0.125000
vt 0.000000 0.750000
vt 0.187500 0.968750
vt 0.000000 0.968750
vt 0.343750 0.625000
vt 0.218750 0.437500
vt 1.000000 0.343750
vt 0.125000 0.656250
vt 0.062500 0.656250
vt 0.000000 0.437500
vt 0.656250 0.687500
vt 1.000000 0.687500
vt 0.656250 1.000000
vt 0.718750 0.781250
vt 0.781250 0.781250
vt 0.343750 0.875000
vt 0.187500 0.718750
vt 0.343750 0.718750
vt 1.000000 1.000000
vt 1.000000 0.843750
vt 0.968750 0.687500
vt 0.875000 0.843750
vt 0.875000 0.687500
vt 0.343750 0.093750
vt 0.343750 -0.000000
vt 0.343750 0.250000
vt 0.500000 0.250000
vt 0.343750 0.125000
vt 0.000000 0.125000
vt 0.093750 0.000000
vt 0.250000 0.000000
vt 0.187500 0.750000
vt 0.218750 0.625000
vt 1.000000 0.000000
vt 0.187500 0.437500
vt 0.187500 0.656250
vt 0.125000 0.750000
vt 0.062500 0.750000
vt 0.000000 0.656250
vt 0.843750 0.781250
vt 0.843750 1.000000
vt 0.656250 0.781250
vt 0.718750 0.687500
vt 0.781250 0.687500
vt 0.187500 0.875000
vt 0.343750 1.000000
vt 0.968750 0.843750
s 0
f 24/1/1 22/2/1 18/3/1
f 12/4/2 6/5/2 8/6/2
f 8/6/3 3/7/3 4/8/3
f 10/9/1 3/10/1 9/11/1
f 20/12/4 12/13/4 11/14/4
f 17/15/2 24/16/2 13/10/2
f 5/5/5 3/17/5 7/6/5
f 15/18/3 17/19/3 20/20/3
f 5/21/6 2/17/6 1/22/6
f 21/23/6 13/24/6 14/25/6
f 20/26/2 16/27/2 21/28/2
f 13/29/1 19/2/1 17/30/1
f 5/23/4 8/7/4 6/21/4
f 18/31/5 15/32/5 14/33/5
f 24/1/1 23/32/1 22/2/1
f 12/4/2 9/34/2 2/35/2
f 8/6/2 4/8/2 10/36/2
f 8/6/2 10/36/2 11/37/2
f 12/4/2 2/35/2 6/5/2
f 8/6/2 11/37/2 12/4/2
f 8/6/3 7/21/3 3/7/3
f 10/9/1 4/38/1 3/10/1
f 3/10/1 1/20/1 2/39/1
f 9/11/1 14/40/1 15/41/1
f 3/10/1 2/39/1 9/11/1
f 9/11/1 15/41/1 10/9/1
f 20/12/4 21/42/4 12/13/4
f 17/15/2 23/43/2 24/16/2
f 5/5/5 1/44/5 3/17/5
f 20/20/3 11/45/3 10/46/3
f 15/18/3 22/47/3 23/48/3
f 20/20/3 10/46/3 15/18/3
f 17/19/3 19/49/3 20/20/3
f 15/18/3 23/48/3 17/19/3
f 5/21/6 6/6/6 2/17/6
f 9/50/6 12/51/6 21/23/6
f 21/23/6 16/52/6 13/24/6
f 13/24/6 24/53/6 18/54/6
f 14/25/6 9/50/6 21/23/6
f 13/24/6 18/54/6 14/25/6
f 20/26/2 19/55/2 16/27/2
f 13/29/1 16/3/1 19/2/1
f 5/23/4 7/56/4 8/7/4
f 18/31/5 22/57/5 15/32/5
